<mxfile host="app.diagrams.net" agent="Mozilla/5.0 (Macintosh; Intel Mac OS X 10_15_7) AppleWebKit/605.1.15 (KHTML, like Gecko) Version/18.3 Safari/605.1.15" version="26.0.6">
  <diagram name="Page-1" id="1oCdXaSbJBGT_sk01WbW">
    <mxGraphModel dx="1958" dy="876" grid="0" gridSize="10" guides="1" tooltips="1" connect="1" arrows="1" fold="1" page="0" pageScale="1" pageWidth="827" pageHeight="1169" math="0" shadow="0">
      <root>
        <mxCell id="0" />
        <mxCell id="1" parent="0" />
        <mxCell id="OIg03JNoHvx-kiGsoHV6-7" style="edgeStyle=none;curved=1;rounded=0;orthogonalLoop=1;jettySize=auto;html=1;entryX=0.25;entryY=0;entryDx=0;entryDy=0;fontSize=12;startSize=8;endSize=8;startArrow=classic;startFill=1;" edge="1" parent="1" source="OIg03JNoHvx-kiGsoHV6-1" target="OIg03JNoHvx-kiGsoHV6-3">
          <mxGeometry relative="1" as="geometry" />
        </mxCell>
        <mxCell id="OIg03JNoHvx-kiGsoHV6-11" style="edgeStyle=none;curved=1;rounded=0;orthogonalLoop=1;jettySize=auto;html=1;fontSize=12;startSize=8;endSize=8;" edge="1" parent="1" source="OIg03JNoHvx-kiGsoHV6-1" target="OIg03JNoHvx-kiGsoHV6-8">
          <mxGeometry relative="1" as="geometry" />
        </mxCell>
        <mxCell id="OIg03JNoHvx-kiGsoHV6-12" style="edgeStyle=none;curved=1;rounded=0;orthogonalLoop=1;jettySize=auto;html=1;entryX=0.5;entryY=0;entryDx=0;entryDy=0;fontSize=12;startSize=8;endSize=8;startArrow=classic;startFill=1;" edge="1" parent="1" source="OIg03JNoHvx-kiGsoHV6-1" target="OIg03JNoHvx-kiGsoHV6-2">
          <mxGeometry relative="1" as="geometry" />
        </mxCell>
        <mxCell id="OIg03JNoHvx-kiGsoHV6-13" value="Recon and Settelment" style="edgeLabel;html=1;align=center;verticalAlign=middle;resizable=0;points=[];fontSize=12;" vertex="1" connectable="0" parent="OIg03JNoHvx-kiGsoHV6-12">
          <mxGeometry x="0.1662" y="-1" relative="1" as="geometry">
            <mxPoint as="offset" />
          </mxGeometry>
        </mxCell>
        <mxCell id="OIg03JNoHvx-kiGsoHV6-1" value="Issuer" style="rounded=0;whiteSpace=wrap;html=1;" vertex="1" parent="1">
          <mxGeometry x="-63" y="41" width="120" height="60" as="geometry" />
        </mxCell>
        <mxCell id="OIg03JNoHvx-kiGsoHV6-2" value="Acquirer" style="rounded=0;whiteSpace=wrap;html=1;" vertex="1" parent="1">
          <mxGeometry x="-63" y="293" width="120" height="60" as="geometry" />
        </mxCell>
        <mxCell id="OIg03JNoHvx-kiGsoHV6-6" style="edgeStyle=none;curved=1;rounded=0;orthogonalLoop=1;jettySize=auto;html=1;entryX=1;entryY=0.5;entryDx=0;entryDy=0;fontSize=12;startSize=8;endSize=8;startArrow=classic;startFill=1;" edge="1" parent="1" source="OIg03JNoHvx-kiGsoHV6-3" target="OIg03JNoHvx-kiGsoHV6-2">
          <mxGeometry relative="1" as="geometry" />
        </mxCell>
        <mxCell id="OIg03JNoHvx-kiGsoHV6-3" value="Interchange" style="rounded=0;whiteSpace=wrap;html=1;" vertex="1" parent="1">
          <mxGeometry x="179" y="163" width="120" height="60" as="geometry" />
        </mxCell>
        <mxCell id="OIg03JNoHvx-kiGsoHV6-5" style="edgeStyle=none;curved=1;rounded=0;orthogonalLoop=1;jettySize=auto;html=1;entryX=0.558;entryY=1;entryDx=0;entryDy=0;entryPerimeter=0;fontSize=12;startSize=8;endSize=8;strokeColor=none;startArrow=classic;startFill=1;" edge="1" parent="1" source="OIg03JNoHvx-kiGsoHV6-2" target="OIg03JNoHvx-kiGsoHV6-3">
          <mxGeometry relative="1" as="geometry" />
        </mxCell>
        <mxCell id="OIg03JNoHvx-kiGsoHV6-8" value="CARD" style="rounded=0;whiteSpace=wrap;html=1;" vertex="1" parent="1">
          <mxGeometry x="-386" y="44" width="120" height="60" as="geometry" />
        </mxCell>
        <mxCell id="OIg03JNoHvx-kiGsoHV6-10" style="edgeStyle=none;curved=1;rounded=0;orthogonalLoop=1;jettySize=auto;html=1;entryX=0;entryY=0.5;entryDx=0;entryDy=0;fontSize=12;startSize=8;endSize=8;" edge="1" parent="1" source="OIg03JNoHvx-kiGsoHV6-9" target="OIg03JNoHvx-kiGsoHV6-2">
          <mxGeometry relative="1" as="geometry" />
        </mxCell>
        <mxCell id="OIg03JNoHvx-kiGsoHV6-9" value="POS" style="rounded=0;whiteSpace=wrap;html=1;" vertex="1" parent="1">
          <mxGeometry x="-374" y="293" width="120" height="60" as="geometry" />
        </mxCell>
        <mxCell id="OIg03JNoHvx-kiGsoHV6-14" style="edgeStyle=none;curved=1;rounded=0;orthogonalLoop=1;jettySize=auto;html=1;entryX=0.25;entryY=0;entryDx=0;entryDy=0;fontSize=12;startSize=8;endSize=8;startArrow=classic;startFill=1;" edge="1" source="OIg03JNoHvx-kiGsoHV6-18" target="OIg03JNoHvx-kiGsoHV6-21" parent="1">
          <mxGeometry relative="1" as="geometry" />
        </mxCell>
        <mxCell id="OIg03JNoHvx-kiGsoHV6-15" style="edgeStyle=none;curved=1;rounded=0;orthogonalLoop=1;jettySize=auto;html=1;fontSize=12;startSize=8;endSize=8;" edge="1" source="OIg03JNoHvx-kiGsoHV6-18" target="OIg03JNoHvx-kiGsoHV6-23" parent="1">
          <mxGeometry relative="1" as="geometry" />
        </mxCell>
        <mxCell id="OIg03JNoHvx-kiGsoHV6-16" style="edgeStyle=none;curved=1;rounded=0;orthogonalLoop=1;jettySize=auto;html=1;entryX=0.5;entryY=0;entryDx=0;entryDy=0;fontSize=12;startSize=8;endSize=8;startArrow=classic;startFill=1;" edge="1" source="OIg03JNoHvx-kiGsoHV6-18" target="OIg03JNoHvx-kiGsoHV6-19" parent="1">
          <mxGeometry relative="1" as="geometry" />
        </mxCell>
        <mxCell id="OIg03JNoHvx-kiGsoHV6-17" value="Recon and Settelment" style="edgeLabel;html=1;align=center;verticalAlign=middle;resizable=0;points=[];fontSize=12;" vertex="1" connectable="0" parent="OIg03JNoHvx-kiGsoHV6-16">
          <mxGeometry x="0.1662" y="-1" relative="1" as="geometry">
            <mxPoint as="offset" />
          </mxGeometry>
        </mxCell>
        <mxCell id="OIg03JNoHvx-kiGsoHV6-18" value="Issuer Bank" style="rounded=0;whiteSpace=wrap;html=1;" vertex="1" parent="1">
          <mxGeometry x="-51" y="469" width="120" height="60" as="geometry" />
        </mxCell>
        <mxCell id="OIg03JNoHvx-kiGsoHV6-19" value="Acquirer Bank" style="rounded=0;whiteSpace=wrap;html=1;" vertex="1" parent="1">
          <mxGeometry x="-51" y="721" width="120" height="60" as="geometry" />
        </mxCell>
        <mxCell id="OIg03JNoHvx-kiGsoHV6-20" style="edgeStyle=none;curved=1;rounded=0;orthogonalLoop=1;jettySize=auto;html=1;entryX=1;entryY=0.5;entryDx=0;entryDy=0;fontSize=12;startSize=8;endSize=8;startArrow=classic;startFill=1;" edge="1" source="OIg03JNoHvx-kiGsoHV6-21" target="OIg03JNoHvx-kiGsoHV6-19" parent="1">
          <mxGeometry relative="1" as="geometry" />
        </mxCell>
        <mxCell id="OIg03JNoHvx-kiGsoHV6-21" value="Interchange" style="rounded=0;whiteSpace=wrap;html=1;" vertex="1" parent="1">
          <mxGeometry x="191" y="591" width="120" height="60" as="geometry" />
        </mxCell>
        <mxCell id="OIg03JNoHvx-kiGsoHV6-22" style="edgeStyle=none;curved=1;rounded=0;orthogonalLoop=1;jettySize=auto;html=1;entryX=0.558;entryY=1;entryDx=0;entryDy=0;entryPerimeter=0;fontSize=12;startSize=8;endSize=8;strokeColor=none;startArrow=classic;startFill=1;" edge="1" source="OIg03JNoHvx-kiGsoHV6-19" target="OIg03JNoHvx-kiGsoHV6-21" parent="1">
          <mxGeometry relative="1" as="geometry" />
        </mxCell>
        <mxCell id="OIg03JNoHvx-kiGsoHV6-26" style="edgeStyle=none;curved=1;rounded=0;orthogonalLoop=1;jettySize=auto;html=1;fontSize=12;startSize=8;endSize=8;" edge="1" parent="1" source="OIg03JNoHvx-kiGsoHV6-23" target="OIg03JNoHvx-kiGsoHV6-27">
          <mxGeometry relative="1" as="geometry">
            <mxPoint x="-510.9411764705883" y="513.4117647058824" as="targetPoint" />
          </mxGeometry>
        </mxCell>
        <mxCell id="OIg03JNoHvx-kiGsoHV6-23" value="MOCO APP" style="rounded=0;whiteSpace=wrap;html=1;" vertex="1" parent="1">
          <mxGeometry x="-360" y="472" width="120" height="60" as="geometry" />
        </mxCell>
        <mxCell id="OIg03JNoHvx-kiGsoHV6-24" style="edgeStyle=none;curved=1;rounded=0;orthogonalLoop=1;jettySize=auto;html=1;entryX=0;entryY=0.5;entryDx=0;entryDy=0;fontSize=12;startSize=8;endSize=8;" edge="1" source="OIg03JNoHvx-kiGsoHV6-25" target="OIg03JNoHvx-kiGsoHV6-19" parent="1">
          <mxGeometry relative="1" as="geometry" />
        </mxCell>
        <mxCell id="OIg03JNoHvx-kiGsoHV6-25" value="MOCO QR" style="rounded=0;whiteSpace=wrap;html=1;" vertex="1" parent="1">
          <mxGeometry x="-362" y="721" width="120" height="60" as="geometry" />
        </mxCell>
        <mxCell id="OIg03JNoHvx-kiGsoHV6-27" value="Scan QR" style="rounded=0;whiteSpace=wrap;html=1;" vertex="1" parent="1">
          <mxGeometry x="-569.0011764705882" y="479.0017647058824" width="120" height="60" as="geometry" />
        </mxCell>
      </root>
    </mxGraphModel>
  </diagram>
</mxfile>
